<svg width="24" height="24" viewBox="0 0 24 24" fill="none" xmlns="http://www.w3.org/2000/svg">
<path d="M22.4415 18.1508C21.9368 20.0291 21.2556 22.1819 19.3884 23.1376C18.0633 23.8166 16.489 23.8269 15.1639 23.1376C13.2074 22.12 12.7401 19.7381 12.6861 17.7174C11.8824 17.2427 11.2697 17.8061 10.954 18.5595C10.2437 20.2458 10.173 21.3295 8.62573 22.6339C6.12095 24.7454 1.39177 24.5617 0.353298 21.0054C-0.330013 18.6648 0.145605 13.8659 0.388606 11.3209C0.664838 8.43746 1.04699 4.39813 2.8207 2.04925C4.5944 -0.299631 8.61742 -0.737208 10.6466 1.59929C11.1513 2.18135 11.8076 3.48995 11.8076 4.25158V5.98538H13.5169C13.7474 4.09678 14.518 2.25359 16.0466 1.05851C18.2066 -0.634006 21.5401 -0.301695 23.0106 2.09053C24.4582 4.44354 23.9888 7.46529 23.6378 10.0639L22.4415 18.1508ZM16.2772 2.20405C15.2034 3.22988 14.6925 4.79649 14.4827 6.231C14.41 6.73049 14.6696 7.13505 13.9614 7.20729C13.2531 7.27953 11.6747 7.20935 10.9664 7.05661C10.3164 6.91626 10.8522 5.66751 10.8543 5.20104C10.875 0.503281 5.20086 -0.297567 3.08862 3.53949C2.08131 5.36823 1.87361 7.64486 1.61192 9.68414C1.26092 12.4355 0.982609 15.2694 1.0013 18.0538C1.01584 20.1984 1.41669 22.4894 3.92563 22.894C6.8458 23.3646 8.92688 21.5875 9.75766 18.9352C10.0692 17.9424 10.0256 16.9847 11.224 16.5863C11.6539 16.4439 13.5564 16.3035 13.7578 16.7246C13.8305 18.0105 13.7121 19.2881 14.1836 20.5162C15.1639 23.0715 18.3167 23.3213 20.0136 21.3109C21.7769 19.2241 21.9866 14.2374 22.348 11.5335C22.7094 8.82962 23.7084 5.29599 22.1902 2.77373C20.9066 0.639508 18.0114 0.550754 16.2792 2.20612L16.2772 2.20405Z" fill="black"/>
<path d="M16.2769 2.204C18.0111 0.548638 20.9043 0.637392 22.1878 2.77161C23.7061 5.29387 22.7091 8.811 22.3457 11.5314C21.9822 14.2518 21.7745 19.222 20.0112 21.3088C18.3123 23.3191 15.1616 23.0694 14.1812 20.5141C13.7098 19.286 13.8282 18.0084 13.7555 16.7225C13.554 16.3014 11.6515 16.4418 11.2216 16.5842C10.0232 16.9805 10.0668 17.9382 9.75529 18.9331C8.92452 21.5853 6.84551 23.3604 3.92326 22.8919C1.41432 22.4873 1.01347 20.1962 0.998936 18.0517C0.980244 15.2673 1.25855 12.4334 1.60956 9.68202C1.86917 7.64275 2.07894 5.36611 3.08626 3.53737C5.20057 -0.297618 10.8748 0.50323 10.8561 5.20512C10.8561 5.66953 10.3161 6.92033 10.9682 7.06069C11.6765 7.21343 13.2445 7.28567 13.9632 7.21136C14.6818 7.13706 14.4118 6.73457 14.4845 6.23507C14.6922 4.80056 15.2052 3.23189 16.2789 2.20813L16.2769 2.204ZM8.71267 9.46736C7.32113 9.75839 6.82058 12.6873 8.04598 13.4303C8.91413 13.9567 9.64314 13.3705 9.94637 12.5304C10.2849 11.5913 10.2475 9.14743 8.71267 9.46943V9.46736ZM15.5499 9.53341C14.2581 9.8265 13.7347 12.5944 15.0079 13.2384C16.7857 14.1383 17.4109 10.9143 16.4617 9.89049C16.2166 9.62629 15.9279 9.44672 15.552 9.53135L15.5499 9.53341Z" fill="#FE508B"/>
<path d="M8.71339 9.46737C10.2503 9.14538 10.2877 11.5892 9.94709 12.5283C9.64385 13.3684 8.91485 13.9546 8.04669 13.4283C6.8213 12.6852 7.32392 9.7584 8.71339 9.46531V9.46737Z" fill="black"/>
<path d="M15.5508 9.53346C15.9267 9.44884 16.2175 9.62841 16.4605 9.89261C17.4117 10.9164 16.7845 14.1404 15.0066 13.2405C13.7335 12.5965 14.2569 9.82656 15.5487 9.53553L15.5508 9.53346Z" fill="black"/>
</svg>
