<svg width="20" height="20" viewBox="0 0 20 20" fill="none" xmlns="http://www.w3.org/2000/svg">
<path d="M0 4C0 1.79086 1.77062 0 3.9548 0H15.8192C18.0033 0 19.774 1.79086 19.774 4V16C19.774 18.2091 18.0033 20 15.8192 20H3.9548C1.77062 20 0 18.2091 0 16V4ZM3.9548 1C2.31667 1 0.988701 2.34315 0.988701 4V16C0.988701 17.6569 2.31667 19 3.9548 19H15.8192C17.4574 19 18.7853 17.6569 18.7853 16V4C18.7853 2.34315 17.4574 1 15.8192 1H3.9548Z" fill="#C3C3C3"/>
<path d="M15.8175 6L7.66075 14L3.95312 10.3636" stroke="#FE508B" stroke-width="2" stroke-linecap="round" stroke-linejoin="round"/>
</svg>
