<svg width="174" height="46" viewBox="0 0 174 46" fill="none" xmlns="http://www.w3.org/2000/svg">
<g clip-path="url(#clip0_473_3249)">
<path d="M134.102 29.2642C134.004 25.899 133.828 22.3693 133.969 19.0041C134.106 15.7408 134.624 13.1513 138.443 12.7713C140.6 12.5558 142.149 13.3198 143.721 14.6948C146.737 12.3443 152.153 11.9133 155.266 14.2482C155.513 14.4323 156.121 15.208 156.353 15.1884C157.776 14.1424 159.286 13.1356 161.054 12.787C165.611 11.8977 170.305 12.8222 172.513 17.2687C174.56 21.3978 174.031 29.3661 173.611 33.9692C173.289 37.4911 172.838 41.7652 168.737 42.6427C165.741 43.2813 162.646 42.298 162.376 38.8779C162.074 35.0583 162.799 30.937 162.509 27.137C162.47 26.6395 162.301 25.19 161.776 25.0293C160.337 24.5906 159.992 27.0978 159.925 28.0302C159.698 31.2896 159.807 34.5882 159.411 37.8359C158.964 41.5144 157.133 43.2813 153.282 42.9287C147.964 42.4468 149.059 37.1855 149.09 33.456C149.102 32.0144 149.306 26.8432 148.812 25.8559C148 24.2458 146.576 25.664 146.208 26.8314C145.055 30.4904 146.157 35.7165 144.961 39.3872C143.631 43.4654 136.204 43.9943 134.475 40.3078C134.028 39.3519 134.012 38.5528 133.98 37.5734C133.98 37.5734 134.145 30.3964 134.11 29.2564L134.102 29.2642Z" fill="black"/>
<path d="M162.345 14.3345C160.682 14.5342 158.972 15.3413 157.67 16.3716C157.262 16.6928 156.894 17.3627 156.376 17.4097C155.482 17.4959 154.949 16.2658 154.309 15.7174C152.423 14.0994 148.157 14.2326 146.019 15.3099C145.29 15.6782 144 17.0101 143.329 16.9945C142.494 16.9788 141.835 15.0788 140.435 14.7419C137.894 14.1347 135.992 14.9378 135.773 17.7114C135.247 24.3438 136.18 31.654 135.773 38.3569C135.929 41.1619 139.474 41.4557 141.506 40.5899C143.914 39.5596 143.494 36.7468 143.659 34.6117C143.847 32.1398 143.823 27.8305 144.651 25.6719C145.827 22.6005 149.764 22.2558 150.592 25.617C150.933 27.0078 150.749 28.4494 150.753 29.8323C150.76 32.4884 150.47 36.0848 150.757 38.6077C151.133 41.9415 156.247 42.0708 157.278 39.3167C157.945 37.5303 157.886 33.8047 157.996 31.7794C158.133 29.2604 157.584 23.7405 160.952 23.1255C163.67 22.6318 164.195 25.1313 164.321 27.2546C164.544 31.0272 163.85 35.125 164.18 38.8741C164.38 41.1267 166.96 41.2951 168.705 40.8054C171.811 39.9318 171.619 34.6235 171.803 32.034C172.336 24.5005 173.556 12.9751 162.341 14.3266L162.345 14.3345Z" fill="black"/>
<path d="M162.344 14.3344C173.556 12.9829 172.336 24.5083 171.807 32.0418C171.623 34.6313 171.815 39.9396 168.709 40.8132C166.964 41.3029 164.38 41.1345 164.184 38.8819C163.854 35.1328 164.548 31.035 164.325 27.2624C164.199 25.143 163.674 22.6397 160.956 23.1333C157.588 23.7483 158.137 29.2682 157.999 31.7872C157.89 33.8165 157.949 37.5421 157.282 39.3246C156.251 42.0786 151.141 41.9493 150.76 38.6155C150.474 36.0926 150.76 32.4962 150.757 29.8401C150.753 28.4572 150.941 27.0156 150.596 25.6248C149.768 22.2636 145.831 22.6083 144.655 25.6797C143.827 27.8383 143.847 32.1476 143.663 34.6196C143.502 36.7546 143.921 39.5674 141.51 40.5978C139.478 41.4635 135.933 41.1697 135.776 38.3647C136.184 31.6618 135.251 24.3516 135.776 17.7192C135.996 14.9456 137.894 14.1425 140.439 14.7497C141.839 15.0827 142.498 16.9827 143.333 17.0023C144.004 17.014 145.298 15.6821 146.023 15.3177C148.161 14.2404 152.427 14.1072 154.313 15.7252C154.953 16.2736 155.482 17.5037 156.38 17.4176C156.894 17.3666 157.266 16.7006 157.674 16.3794C158.976 15.3491 160.686 14.5421 162.348 14.3423L162.344 14.3344Z" fill="#FE508B"/>
<path d="M117.927 31.8028C119.511 30.1926 121.981 30.126 123.95 31.0467C124.77 31.4306 125.413 32.0848 126.346 32.3943C126.969 32.598 127.711 32.8997 127.954 32.0731C128.009 31.5599 127.381 31.2034 127.009 30.9566C125.397 29.891 123.287 29.3817 121.577 28.5159C119.868 27.6501 118.346 26.2085 117.558 24.4064C116.264 21.4486 117.883 17.7661 117.883 17.7661C120.413 11.3844 132.314 10.5539 137.052 14.35C141.432 17.8602 137.922 24.4965 132.42 23.2311C131.954 23.1254 128.977 21.5779 129.393 23.0235C129.597 23.3056 129.879 23.619 130.185 23.7874C133.958 25.9068 136.099 25.2879 139.408 29.0135C139.408 29.0135 141.879 31.9869 139.318 37.3069C137.632 40.8915 134.04 42.7719 130.213 43.2381C125.456 43.8179 119.464 42.9639 117.127 38.1296C115.436 34.6352 117.93 31.8067 117.93 31.8067L117.927 31.8028ZM128.126 24.4887C126.04 22.3732 128.828 19.7406 131.267 20.6416C132.569 21.1235 132.711 21.7895 134.475 21.5701C136.605 21.3076 137.856 18.1226 136.542 16.4028C134.291 13.4568 126.522 13.5273 123.389 14.875C118.934 16.7907 117.013 22.6983 121.052 26.0753C123.311 27.9635 128.338 28.6805 129.742 31.0663C130.511 32.3747 130.001 33.6166 128.648 34.1846C125.864 35.356 124.244 32.5353 121.938 32.2846C118.585 31.9203 117.711 35.1053 118.954 37.7183C120.938 41.8944 127.409 41.9727 131.342 41.2637C136.071 40.4096 139.503 36.2374 138.385 31.3366C137.33 26.7138 130.589 26.9763 128.134 24.4848L128.126 24.4887Z" fill="black"/>
<path d="M128.127 24.4886C130.582 26.9802 137.323 26.7177 138.378 31.3405C139.495 36.2413 136.064 40.4135 131.335 41.2676C127.405 41.9766 120.935 41.9022 118.947 37.7222C117.704 35.1092 118.578 31.9242 121.931 32.2885C124.237 32.5392 125.852 35.3599 128.641 34.1885C129.997 33.6205 130.507 32.3747 129.735 31.0701C128.331 28.6844 123.303 27.9674 121.045 26.0792C117.01 22.7062 118.931 16.7946 123.382 14.8789C126.515 13.5312 134.284 13.4568 136.535 16.4067C137.848 18.1265 136.597 21.3076 134.468 21.574C132.703 21.7934 132.562 21.1235 131.26 20.6455C128.821 19.7445 126.033 22.3771 128.119 24.4926L128.127 24.4886Z" fill="#FE508B"/>
<path d="M119.743 39.0619C119.257 41.9727 117.994 43.7238 114.838 43.9667C110.943 44.2684 108.555 42.8659 108.116 38.8504C108.34 32.6881 107.626 26.0243 108.053 19.909C108.155 18.4634 108.559 16.2069 109.602 15.1374C111.406 13.2844 115.834 13.2413 118.088 14.1541C120.343 15.0669 120.72 17.3587 120.841 19.4663C120.418 36.3823 119.743 39.0659 119.743 39.0659V39.0619ZM112.936 15.4978C109.187 16.0071 110.073 20.3047 110.002 23.0156C109.877 27.799 109.575 33.2209 109.861 37.9768C110.022 40.6172 111.03 42.3409 113.936 42.3018C118.759 42.2391 118.104 37.585 118.39 34.1023C118.767 29.5109 119.347 24.1086 119.041 19.5211C118.935 17.958 118.649 16.2069 116.971 15.6584C116.096 15.3724 113.881 15.3685 112.94 15.4978H112.936Z" fill="black"/>
<path d="M110.301 1.83731C113.066 -0.693439 119.317 0.0548151 120.591 4.04289C122.411 9.72336 117.078 14.2325 111.768 12.0817C107.827 10.4873 107.34 4.54826 110.301 1.83731ZM113.454 2.34267C109.262 2.87154 109.144 10.3267 113.799 10.6949C116.709 10.926 118.725 9.69201 118.909 6.6324C119.136 2.85979 116.866 1.91174 113.45 2.34267H113.454Z" fill="black"/>
<path d="M112.935 15.4978C113.876 15.3685 116.092 15.3725 116.966 15.6584C118.649 16.2069 118.935 17.958 119.037 19.5212C119.343 24.1086 118.762 29.5109 118.386 34.1023C118.1 37.585 118.754 42.2391 113.931 42.3018C111.025 42.3409 110.017 40.6172 109.857 37.9768C109.57 33.2169 109.868 27.795 109.998 23.0156C110.068 20.3047 109.182 16.0071 112.931 15.4978H112.935Z" fill="#FE508B"/>
<path d="M113.454 2.34265C116.869 1.91172 119.14 2.85977 118.912 6.63238C118.728 9.692 116.712 10.926 113.803 10.6949C109.144 10.3266 109.266 2.87152 113.458 2.34265H113.454Z" fill="#FE508B"/>
<path d="M82.1942 20.0657C81.9864 17.8484 82.006 15.6389 81.9433 13.4176C81.8491 10.0838 81.3433 6.33077 82.9942 3.25549C84.5589 0.340824 87.9157 -0.493616 90.9823 0.262473C97.0919 1.77073 95.688 9.27286 95.6253 14.0014C98.7586 12.8966 102.331 12.6733 105.394 14.1111C113.656 17.9777 112.688 34.2787 107.629 40.3783C104.739 43.861 100.1 45.5573 95.6527 44.2253C94.3547 43.8375 93.3312 43.1245 92.3313 42.247L92.1587 42.2705C91.2332 43.8101 89.0058 44.386 87.3039 44.3154C81.6688 44.0843 82.8491 37.4911 82.7158 33.6127L82.1982 20.0697L82.1942 20.0657ZM88.2333 2.04496C84.9863 2.3427 83.9393 5.12025 83.7432 8.00749C83.5746 10.4834 83.7903 13.6018 83.8648 16.1364C83.9981 20.5907 84.2805 25.0881 84.3903 29.5384C84.4805 33.0133 84.2256 36.5195 84.6569 39.9787C85.0883 43.4379 89.3627 43.3243 90.947 40.8719C91.2646 40.3822 91.5548 39.1364 92.1979 39.1404C92.841 39.1443 92.9587 39.963 93.2646 40.4096C95.8253 44.0882 101.77 43.3282 104.845 40.6995C109.966 36.3197 111.15 24.5866 107.903 18.9492C105.676 15.0826 100.747 14.0601 96.7429 15.5801C95.9939 15.8661 94.4096 17.1981 93.7979 16.4028C93.3901 15.874 93.9155 12.2659 93.943 11.3648C94.0881 7.05552 94.143 1.50434 88.2294 2.04496H88.2333Z" fill="black"/>
<path d="M88.2327 2.04495C94.1462 1.50433 94.0953 7.05551 93.9462 11.3648C93.9149 12.262 93.3894 15.87 93.8012 16.4028C94.4168 17.1981 95.9972 15.8661 96.7462 15.5801C100.75 14.0562 105.683 15.0787 107.907 18.9492C111.15 24.5866 109.965 36.3197 104.848 40.6995C101.774 43.3282 95.8286 44.0882 93.2678 40.4096C92.958 39.9669 92.8286 39.1443 92.2012 39.1403C91.5738 39.1364 91.2679 40.3822 90.9502 40.8719C89.366 43.3243 85.0719 43.2616 84.6602 39.9787C84.2288 36.5234 84.4798 33.0133 84.3935 29.5384C84.2798 25.0841 83.9974 20.5907 83.868 16.1364C83.7935 13.5978 83.5779 10.4834 83.7465 8.00748C83.9425 5.12024 84.9857 2.34269 88.2366 2.04495H88.2327ZM97.3971 22.8041C95.8364 23.094 94.5815 25.3231 94.2168 26.7217C93.3463 30.0555 93.1698 35.9985 98.1422 35.4147C103.095 34.8349 103.173 21.7307 97.3971 22.8041Z" fill="#FE508B"/>
<path d="M97.3976 22.8041C103.174 21.7306 103.096 34.8349 98.1427 35.4147C93.1703 35.9984 93.3507 30.0555 94.2173 26.7216C94.582 25.3191 95.8369 23.094 97.3976 22.8041ZM96.9623 25.2721C95.6251 26.5688 95.1036 30.7136 95.7467 32.3903C96.1428 33.4246 97.4016 33.8633 98.3309 33.2796C100.19 32.1161 100.684 26.3965 98.978 25.0371C98.2917 24.4925 97.5506 24.7041 96.9623 25.2721Z" fill="black"/>
<path d="M58.4501 20.0657C58.2423 17.8484 58.2619 15.6389 58.1991 13.4176C58.105 10.0838 57.5991 6.33077 59.2501 3.25549C60.8147 0.340824 64.1715 -0.493616 67.2381 0.262473C73.3478 1.77073 71.9439 9.27286 71.8812 14.0014C75.0144 12.8966 78.5869 12.6733 81.6496 14.1111C89.9121 17.9777 88.9435 34.2787 83.8848 40.3783C80.9947 43.861 76.3556 45.5573 71.9086 44.2253C70.6106 43.8375 69.5871 43.1245 68.5871 42.247L68.4146 42.2705C67.4891 43.8101 65.2617 44.386 63.5598 44.3154C57.9246 44.0843 59.105 37.4911 58.9716 33.6127L58.454 20.0697L58.4501 20.0657ZM64.4892 2.04496C61.2422 2.3427 60.1951 5.12025 59.9991 8.00749C59.8305 10.4834 60.0461 13.6018 60.1206 16.1364C60.254 20.5907 60.5363 25.0881 60.6461 29.5384C60.7363 33.0133 60.4814 36.5195 60.9128 39.9787C61.3441 43.4379 65.6186 43.3243 67.2028 40.8719C67.5205 40.3822 67.8107 39.1364 68.4538 39.1404C69.0969 39.1443 69.2146 39.963 69.5204 40.4096C72.0812 44.0882 78.0261 43.3282 81.1006 40.6995C86.222 36.3197 87.4063 24.5866 84.1593 18.9492C81.9319 15.0826 77.0026 14.0601 72.9988 15.5801C72.2498 15.8661 70.6655 17.1981 70.0538 16.4028C69.6459 15.874 70.1714 12.2659 70.1988 11.3648C70.3439 7.05552 70.3988 1.50434 64.4852 2.04496H64.4892Z" fill="black"/>
<path d="M64.4885 2.04495C70.4021 1.50433 70.3511 7.05551 70.2021 11.3648C70.1707 12.262 69.6453 15.87 70.057 16.4028C70.6727 17.1981 72.253 15.8661 73.002 15.5801C77.0059 14.0562 81.9391 15.0787 84.1626 18.9492C87.4056 24.5866 86.2214 36.3197 81.1038 40.6995C78.0294 43.3282 72.0844 44.0882 69.5237 40.4096C69.2139 39.9669 69.0845 39.1443 68.4571 39.1403C67.8296 39.1364 67.5237 40.3822 67.2061 40.8719C65.6218 43.3243 61.3278 43.2616 60.916 39.9787C60.4847 36.5234 60.7357 33.0133 60.6494 29.5384C60.5357 25.0841 60.2533 20.5907 60.1239 16.1364C60.0494 13.5978 59.8337 10.4834 60.0023 8.00748C60.1984 5.12024 61.2415 2.34269 64.4924 2.04495H64.4885ZM73.6491 22.8041C72.0883 23.094 70.8335 25.3231 70.4688 26.7217C69.5982 30.0555 69.4217 35.9985 74.3942 35.4147C79.347 34.8349 79.4254 21.7307 73.6491 22.8041Z" fill="#FE508B"/>
<path d="M73.6496 22.8041C79.4259 21.7306 79.3475 34.8349 74.3947 35.4147C69.4222 35.9984 69.6026 30.0555 70.4693 26.7216C70.834 25.3191 72.0888 23.094 73.6496 22.8041ZM73.2143 25.2721C71.8771 26.5688 71.3555 30.7136 71.9986 32.3903C72.3947 33.4246 73.6535 33.8633 74.5829 33.2796C76.4417 32.1161 76.9358 26.3965 75.2299 25.0371C74.5437 24.4925 73.8025 24.7041 73.2143 25.2721Z" fill="black"/>
<path d="M41.8351 19.1255L43.5095 16.865C48.329 12.0778 56.8386 12.8221 61.1366 17.962C61.517 18.4164 61.8503 18.9884 62.1248 19.4271C67.607 28.1515 62.4268 38.7329 62.4268 38.7329C61.164 41.5457 57.3916 44.5583 53.772 45.0519C46.2899 46.0783 40.9135 41.9884 39.7606 34.8036C37.8822 23.1096 41.8311 19.1294 41.8311 19.1294L41.8351 19.1255ZM50.1957 15.5487C38.9214 16.7318 37.7803 39.7475 48.3879 42.9521C66.262 48.3466 68.5247 13.6252 50.1957 15.5487Z" fill="black"/>
<path d="M50.1952 15.5488C68.5282 13.6213 66.2655 48.3466 48.3874 42.9521C37.7759 39.7515 38.921 16.7358 50.1952 15.5488ZM51.6109 23.6699C47.8306 24.3202 45.7169 35.8339 52.1011 35.3795C57.1284 35.023 57.4304 22.667 51.6109 23.6699Z" fill="#FE508B"/>
<path d="M51.612 23.6698C57.4314 22.6669 57.1295 35.0229 52.1021 35.3794C45.718 35.8339 47.8317 24.3201 51.612 23.6698ZM52.0002 25.6051C50.9924 25.7814 50.3453 27.3406 50.1061 28.2259C49.7885 29.3973 49.5297 32.1396 50.4198 33.0563C51.8237 34.498 53.3609 32.645 53.8002 31.2738C54.2786 29.7773 54.5374 25.1624 52.0002 25.6051Z" fill="black"/>
<path d="M42.372 34.8976C41.4191 38.4626 40.1328 42.5486 36.6074 44.3625C34.1055 45.6513 31.133 45.6709 28.6311 44.3625C24.9371 42.4311 24.0548 37.9102 23.9528 34.075C22.4352 33.1739 21.2784 34.2434 20.6823 35.6733C19.3412 38.874 19.2078 40.9307 16.2863 43.4066C11.557 47.4142 2.62781 47.0656 0.667066 40.3156C-0.623102 35.8731 0.274917 26.7648 0.733731 21.9344C1.25529 16.4616 1.97684 8.79493 5.32578 4.33675C8.67473 -0.121436 16.2706 -0.951958 20.1019 3.48272C21.0548 4.58747 22.294 7.07121 22.294 8.51679V11.8075H25.5214C25.9567 8.22297 27.4116 4.72459 30.2978 2.45632C34.3761 -0.75608 40.6701 -0.125353 43.4465 4.4151C46.1798 8.88112 45.2935 14.6164 44.6308 19.5486L42.372 34.8976ZM30.7331 4.63057C28.7057 6.57759 27.741 9.55102 27.3449 12.2737C27.2076 13.2218 27.6978 13.9896 26.3606 14.1267C25.0234 14.2638 22.0431 14.1307 20.7058 13.8408C19.4784 13.5744 20.4901 11.2042 20.4941 10.3189C20.5333 1.4025 9.8198 -0.117517 5.83166 7.16523C3.92974 10.6362 3.53759 14.9573 3.04348 18.8278C2.38075 24.0499 1.85527 29.4287 1.89057 34.7135C1.91802 38.7839 2.67486 43.1324 7.41201 43.9002C12.9256 44.7934 16.8549 41.4204 18.4235 36.3863C19.0118 34.502 18.9294 32.6842 21.1921 31.9281C22.0038 31.6578 25.5959 31.3914 25.9763 32.1906C26.1136 34.6312 25.89 37.0562 26.7802 39.3872C28.6311 44.2371 34.584 44.7111 37.7878 40.8954C41.1171 36.9348 41.5132 27.4699 42.1955 22.3379C42.8779 17.2059 44.7641 10.4991 41.8975 5.71181C39.474 1.66105 34.0075 1.4926 30.737 4.63448L30.7331 4.63057Z" fill="black"/>
<path d="M30.7329 4.63051C34.0073 1.48863 39.4699 1.65708 41.8934 5.70784C44.76 10.4951 42.8777 17.1706 42.1914 22.334C41.5052 27.4973 41.113 36.9308 37.7837 40.8915C34.5759 44.7072 28.627 44.2331 26.7761 39.3832C25.8859 37.0522 26.1094 34.6273 25.9722 32.1866C25.5918 31.3875 21.9997 31.6538 21.188 31.9242C18.9253 32.6763 19.0076 34.4941 18.4194 36.3823C16.8508 41.4164 12.9254 44.7855 7.40789 43.8962C2.67074 43.1284 1.9139 38.7799 1.88645 34.7095C1.85115 29.4248 2.37663 24.0459 3.03936 18.8238C3.52955 14.9533 3.92562 10.6322 5.82753 7.16126C9.8196 -0.117572 20.5331 1.40244 20.4978 10.3266C20.4978 11.2081 19.4782 13.5821 20.7096 13.8485C22.0468 14.1384 25.0075 14.2755 26.3643 14.1345C27.7212 13.9935 27.2114 13.2296 27.3486 12.2815C27.7408 9.5588 28.7094 6.58146 30.7368 4.63835L30.7329 4.63051ZM16.4508 18.4164C13.8234 18.9688 12.8784 24.5278 15.192 25.9381C16.8312 26.9371 18.2076 25.8245 18.7802 24.2301C19.4194 22.4476 19.3488 17.8092 16.4508 18.4203V18.4164ZM29.3603 18.5418C26.9212 19.0981 25.933 24.3515 28.3368 25.5738C31.6936 27.2818 32.874 21.1626 31.0819 19.2195C30.6191 18.7181 30.074 18.3772 29.3643 18.5379L29.3603 18.5418Z" fill="#FE508B"/>
<path d="M16.4502 18.4164C19.3521 17.8053 19.4227 22.4437 18.7795 24.2261C18.207 25.8206 16.8306 26.9332 15.1914 25.9342C12.8777 24.5239 13.8267 18.9688 16.4502 18.4125V18.4164Z" fill="black"/>
<path d="M29.3612 18.5418C30.071 18.3812 30.62 18.722 31.0788 19.2235C32.8749 21.1666 31.6906 27.2858 28.3338 25.5778C25.9299 24.3555 26.9181 19.0981 29.3573 18.5457L29.3612 18.5418Z" fill="black"/>
</g>
<defs>
<clipPath id="clip0_473_3249">
<rect width="174" height="46" fill="white"/>
</clipPath>
</defs>
</svg>
