<svg width="130" height="122" viewBox="0 0 130 122" fill="none" xmlns="http://www.w3.org/2000/svg">
<path d="M1.76548 55.0883C10.6122 21.5424 50.4462 5.30887 73.7278 0.738364C75.789 0.33371 77.5158 2.19746 77.0638 4.24886L72.4218 25.3164C71.9738 27.3497 73.7074 29.2076 75.7782 28.9908C128.93 23.4275 133.21 52.4084 128.5 68C118.739 101.788 79.4398 117.077 57.5606 121.309C55.5618 121.695 53.8491 119.944 54.19 117.937L57.3184 99.514C57.6568 97.5213 55.963 95.7722 53.951 95.9651C26.9132 98.5576 12.2432 89.3931 5.22083 79.8302C0.0799613 72.8295 -0.449362 63.4868 1.76548 55.0883Z" fill="black"/>
</svg>
